<svg xmlns="http://www.w3.org/2000/svg" xmlns:xlink="http://www.w3.org/1999/xlink" width="500" zoomAndPan="magnify" viewBox="0 0 375 374.999991" height="500" preserveAspectRatio="xMidYMid meet" version="1.0"><defs><clipPath id="f6c7213fca"><path d="M 55.132812 25.335938 L 319.882812 25.335938 L 319.882812 349.335938 L 55.132812 349.335938 Z M 55.132812 25.335938 " clip-rule="nonzero"/></clipPath></defs><g clip-path="url(#f6c7213fca)"><path fill="#050a30" d="M 146.316406 349.335938 C 96.105469 349.335938 55.234375 308.511719 55.234375 258.355469 C 55.234375 237.878906 69.765625 201.722656 98.375 150.851562 C 119.394531 113.464844 140.671875 81.386719 140.867188 81.0625 C 142.097656 79.25 144.109375 78.148438 146.25 78.148438 C 148.390625 78.148438 150.464844 79.25 151.632812 81.0625 C 151.828125 81.386719 173.171875 113.464844 194.191406 150.851562 C 222.796875 201.722656 237.328125 237.878906 237.328125 258.355469 C 237.328125 308.511719 196.527344 349.335938 146.316406 349.335938 Z M 146.316406 96.550781 C 138.726562 108.410156 124.128906 131.542969 109.664062 157.269531 C 75.410156 218.179688 68.273438 245.851562 68.273438 258.355469 C 68.210938 301.382812 103.242188 336.375 146.316406 336.375 C 189.390625 336.375 224.421875 301.382812 224.421875 258.355469 C 224.421875 245.851562 217.21875 218.117188 183.03125 157.269531 C 168.5 131.542969 153.90625 108.34375 146.316406 96.550781 Z M 156.566406 304.234375 C 174.078125 294.515625 188.09375 279.09375 196.007812 260.820312 C 197.433594 257.515625 195.941406 253.691406 192.632812 252.265625 C 189.324219 250.839844 185.496094 252.328125 184.070312 255.632812 C 177.257812 271.316406 165.257812 284.601562 150.207031 292.894531 C 147.09375 294.644531 145.925781 298.597656 147.675781 301.707031 C 148.84375 303.847656 151.050781 305.011719 153.386719 305.011719 C 154.488281 305.011719 155.527344 304.753906 156.566406 304.234375 Z M 266.066406 182.410156 C 236.484375 182.410156 212.355469 158.371094 212.355469 128.757812 C 212.355469 101.539062 255.6875 35.640625 260.617188 28.1875 C 261.851562 26.371094 263.863281 25.269531 266.003906 25.269531 C 268.144531 25.269531 270.21875 26.371094 271.386719 28.1875 C 276.316406 35.640625 319.652344 101.539062 319.652344 128.757812 C 319.78125 158.371094 295.714844 182.410156 266.066406 182.410156 Z M 266.066406 43.738281 C 251.148438 67.195312 225.328125 111.390625 225.328125 128.820312 C 225.328125 151.242188 243.621094 169.515625 266.066406 169.515625 C 288.511719 169.515625 306.808594 151.242188 306.808594 128.820312 C 306.808594 111.390625 280.988281 67.195312 266.066406 43.738281 Z M 269.3125 150.464844 C 277.550781 145.929688 284.492188 139.1875 289.355469 131.152344 C 291.171875 128.109375 290.199219 124.089844 287.152344 122.277344 C 284.101562 120.460938 280.078125 121.433594 278.261719 124.480469 C 274.566406 130.636719 269.3125 135.691406 263.082031 139.125 C 259.96875 140.875 258.800781 144.828125 260.554688 147.9375 C 261.722656 150.074219 263.925781 151.242188 266.261719 151.242188 C 267.234375 151.242188 268.273438 150.984375 269.3125 150.464844 Z M 269.3125 150.464844 " fill-opacity="1" fill-rule="nonzero"/></g></svg>