<svg xmlns="http://www.w3.org/2000/svg" xmlns:xlink="http://www.w3.org/1999/xlink" width="500" zoomAndPan="magnify" viewBox="0 0 375 374.999991" height="500" preserveAspectRatio="xMidYMid meet" version="1.0"><defs><clipPath id="5c1c740168"><path d="M 10.460938 24.484375 L 364.460938 24.484375 L 364.460938 358.984375 L 10.460938 358.984375 Z M 10.460938 24.484375 " clip-rule="nonzero"/></clipPath></defs><g clip-path="url(#5c1c740168)"><path fill="#050a30" d="M 194.4375 37.375 C 194.4375 37.261719 194.464844 37.164062 194.464844 37.050781 L 194.464844 31.488281 C 194.464844 27.636719 191.320312 24.523438 187.457031 24.523438 C 183.589844 24.523438 180.445312 27.636719 180.445312 31.488281 L 180.445312 37.066406 C 180.445312 37.179688 180.472656 37.277344 180.472656 37.390625 C 88.835938 40.519531 15.050781 105.09375 10.460938 185.824219 L 10.6875 185.824219 C 20.261719 173.550781 36.644531 165.453125 55.261719 165.453125 C 73.558594 165.453125 89.699219 173.265625 99.328125 185.1875 C 108.96875 173.265625 125.097656 165.453125 143.390625 165.453125 C 159.09375 165.453125 173.195312 171.214844 182.964844 180.386719 L 182.964844 310.488281 L 182.074219 310.488281 C 182.074219 337.242188 203.765625 358.941406 230.542969 358.941406 C 257.316406 358.941406 279.011719 337.257812 279.011719 310.488281 L 267.597656 310.488281 C 267.597656 330.941406 251.003906 347.53125 230.542969 347.53125 C 210.082031 347.53125 193.488281 330.941406 193.488281 310.488281 L 191.957031 310.488281 L 191.957031 180.386719 C 201.726562 171.230469 215.832031 165.453125 231.535156 165.453125 C 249.828125 165.453125 265.96875 173.265625 275.597656 185.1875 C 285.238281 173.265625 301.367188 165.453125 319.660156 165.453125 C 338.28125 165.453125 354.664062 173.550781 364.234375 185.824219 L 364.460938 185.824219 C 359.859375 105.09375 286.074219 40.519531 194.4375 37.375 Z M 194.4375 37.375 " fill-opacity="1" fill-rule="nonzero"/></g></svg>