<svg xmlns="http://www.w3.org/2000/svg" xmlns:xlink="http://www.w3.org/1999/xlink" width="500" zoomAndPan="magnify" viewBox="0 0 375 374.999991" height="500" preserveAspectRatio="xMidYMid meet" version="1.0"><defs><clipPath id="2e0749c0cf"><path d="M 18.855469 68 L 275 68 L 275 181 L 18.855469 181 Z M 18.855469 68 " clip-rule="nonzero"/></clipPath></defs><g clip-path="url(#2e0749c0cf)"><path fill="#050a30" d="M 274.027344 124.441406 C 274.027344 93.601562 248.847656 68.441406 217.945312 68.441406 C 187.039062 68.441406 161.859375 93.5625 161.859375 124.441406 C 161.859375 127.699219 162.160156 130.992188 162.691406 134.175781 C 163.183594 136.828125 165.726562 138.648438 168.378906 138.117188 C 171.035156 137.660156 172.816406 135.125 172.324219 132.472656 C 171.832031 129.820312 171.605469 127.128906 171.605469 124.441406 C 171.605469 98.941406 192.382812 78.179688 217.90625 78.179688 C 243.425781 78.179688 264.207031 98.941406 264.207031 124.441406 C 264.207031 149.9375 243.425781 170.699219 217.90625 170.699219 L 22.421875 170.699219 C 19.730469 170.699219 17.566406 172.894531 17.566406 175.585938 C 17.566406 178.277344 19.765625 180.472656 22.421875 180.472656 L 217.980469 180.472656 C 248.847656 180.4375 274.027344 155.316406 274.027344 124.441406 Z M 274.027344 124.441406 " fill-opacity="1" fill-rule="nonzero"/></g><path fill="#050a30" d="M 295.265625 194.832031 L 135.085938 194.832031 C 132.394531 194.832031 130.195312 196.992188 130.195312 199.71875 C 130.195312 202.371094 132.394531 204.53125 135.085938 204.53125 L 295.265625 204.53125 C 313.542969 204.53125 328.484375 219.496094 328.484375 237.71875 C 328.484375 256.058594 313.542969 270.945312 295.265625 270.945312 C 276.949219 270.945312 262.007812 256.058594 262.007812 237.71875 C 262.007812 232.757812 263.109375 227.945312 265.269531 223.476562 C 266.40625 221.050781 265.421875 218.132812 262.957031 216.957031 C 260.566406 215.859375 257.609375 216.808594 256.433594 219.269531 C 253.664062 225.105469 252.261719 231.28125 252.261719 237.71875 C 252.261719 261.476562 271.5625 280.722656 295.265625 280.722656 C 318.964844 280.722656 338.230469 261.476562 338.230469 237.71875 C 338.191406 214.078125 318.964844 194.832031 295.265625 194.832031 Z M 295.265625 194.832031 " fill-opacity="1" fill-rule="nonzero"/><path fill="#050a30" d="M 94.625 194.832031 L 60.230469 194.832031 C 57.535156 194.832031 55.335938 196.992188 55.335938 199.71875 C 55.335938 202.371094 57.535156 204.53125 60.230469 204.53125 L 94.625 204.53125 C 103.761719 204.53125 111.234375 211.996094 111.234375 221.164062 C 111.234375 230.292969 103.761719 237.71875 94.625 237.71875 C 85.484375 237.71875 78.050781 230.332031 78.015625 221.164062 C 78.015625 218.664062 78.582031 216.199219 79.644531 214.003906 C 80.820312 211.578125 79.796875 208.660156 77.367188 207.488281 C 74.941406 206.386719 72.023438 207.335938 70.847656 209.796875 C 69.140625 213.320312 68.269531 217.1875 68.269531 221.164062 C 68.269531 235.636719 80.097656 247.457031 94.625 247.457031 C 109.148438 247.457031 120.980469 235.636719 120.980469 221.164062 C 120.980469 206.617188 109.148438 194.832031 94.625 194.832031 Z M 94.625 194.832031 " fill-opacity="1" fill-rule="nonzero"/><path fill="#050a30" d="M 321.242188 115.308594 C 303.230469 115.308594 288.667969 129.894531 288.667969 147.890625 C 288.667969 152.777344 289.730469 157.515625 291.8125 161.945312 C 292.988281 164.371094 295.871094 165.355469 298.335938 164.21875 C 300.765625 163.046875 301.824219 160.128906 300.613281 157.703125 C 299.132812 154.636719 298.414062 151.300781 298.414062 147.890625 C 298.414062 135.273438 308.6875 125.046875 321.277344 125.046875 C 333.867188 125.046875 344.144531 135.273438 344.144531 147.890625 C 344.144531 160.46875 333.867188 170.699219 321.277344 170.699219 L 276.835938 170.699219 C 274.144531 170.699219 271.945312 172.894531 271.945312 175.585938 C 271.945312 178.277344 274.144531 180.472656 276.835938 180.472656 L 321.242188 180.472656 C 339.214844 180.472656 353.816406 165.847656 353.855469 147.929688 C 353.855469 129.894531 339.214844 115.308594 321.242188 115.308594 Z M 321.242188 115.308594 " fill-opacity="1" fill-rule="nonzero"/></svg>